<?xml version="1.0" standalone="no"?><!DOCTYPE svg PUBLIC "-//W3C//DTD SVG 1.1//EN" "http://www.w3.org/Graphics/SVG/1.1/DTD/svg11.dtd"><svg t="1713509461992" class="icon" viewBox="0 0 1024 1024" version="1.1" xmlns="http://www.w3.org/2000/svg" p-id="5216" xmlns:xlink="http://www.w3.org/1999/xlink" width="200" height="200"><path d="M270.222222 56.888889h483.555556c94.250667 0 170.666667 76.416 170.666666 170.666667v455.111111c0 78.549333-63.672889 142.222222-142.222222 142.222222L617.045333 983.751111A28.444444 28.444444 0 0 1 568.888889 963.271111V824.888889H270.222222c-94.250667 0-170.666667-76.416-170.666666-170.666667V227.555556C99.555556 133.304889 175.971556 56.888889 270.222222 56.888889z" fill="#FEF6EE" p-id="5217"></path><path d="M753.777778 71.111111c94.250667 0 170.666667 76.416 170.666666 170.666667v394.197333c0 77.226667-61.539556 140.060444-138.24 142.165333l-3.982222 0.056889-166.030222 147.029334A28.444444 28.444444 0 0 1 568.888889 903.921778v-125.724445H270.222222c-94.250667 0-170.666667-76.401778-170.666666-170.666666V241.777778c0-94.250667 76.416-170.666667 170.666666-170.666667h483.555556z m0 56.888889H270.222222a113.777778 113.777778 0 0 0-113.777778 113.777778v365.752889a113.777778 113.777778 0 0 0 113.777778 113.777777h355.555556v119.438223l118.727111-105.144889 16.156444-14.293334H782.222222a85.333333 85.333333 0 0 0 85.333334-85.333333V241.777778a113.777778 113.777778 0 0 0-113.777778-113.777778z" fill="#933129" p-id="5218"></path><path d="M327.111111 284.444444m-42.666667 0a42.666667 42.666667 0 1 0 85.333334 0 42.666667 42.666667 0 1 0-85.333334 0Z" fill="#0A3E47" p-id="5219"></path><path d="M796.444444 384c0 157.098667-127.345778 284.444444-284.444444 284.444444s-284.444444-127.345778-284.444444-284.444444z" fill="#0A3E47" p-id="5220"></path><path d="M512 426.666667c96.369778 0 180.949333 50.446222 228.792889 126.364444C688.981333 623.047111 605.795556 668.444444 512 668.444444c-93.795556 0-176.981333-45.397333-228.807111-115.413333C331.050667 477.098667 415.644444 426.666667 512 426.666667z" fill="#FF6400" p-id="5221"></path><path d="M682.666667 284.444444m-42.666667 0a42.666667 42.666667 0 1 0 85.333333 0 42.666667 42.666667 0 1 0-85.333333 0Z" fill="#0A3E47" p-id="5222"></path><path d="M753.777778 56.888889c94.250667 0 170.666667 76.416 170.666666 170.666667v394.197333c0 77.226667-61.539556 140.060444-138.24 142.165333l-3.982222 0.056889-166.030222 147.029333A28.444444 28.444444 0 0 1 568.888889 889.699556v-125.724445H270.222222c-94.250667 0-170.666667-76.401778-170.666666-170.666667V227.555556C99.555556 133.304889 175.971556 56.888889 270.222222 56.888889h483.555556z m0 56.888889H270.222222a113.777778 113.777778 0 0 0-113.777778 113.777778v365.752888a113.777778 113.777778 0 0 0 113.777778 113.777778h355.555556v119.438222l118.727111-105.144888 16.156444-14.293334H782.222222a85.333333 85.333333 0 0 0 85.333334-85.333333V227.555556a113.777778 113.777778 0 0 0-113.777778-113.777778z" fill="#FF6400" p-id="5223"></path></svg>