<?xml version="1.0" standalone="no"?><!DOCTYPE svg PUBLIC "-//W3C//DTD SVG 1.1//EN" "http://www.w3.org/Graphics/SVG/1.1/DTD/svg11.dtd"><svg t="1710699135305" class="icon" viewBox="0 0 1024 1024" version="1.1" xmlns="http://www.w3.org/2000/svg" p-id="8309" xmlns:xlink="http://www.w3.org/1999/xlink" width="200" height="200"><path d="M878.7 65H149.8c-37.7 0-68.3 31.2-68.3 69.6v278.6c0 38.5 30.6 69.6 68.3 69.6h728.9c37.7 0 68.3-31.2 68.3-69.6V134.6c0-38.4-30.6-69.6-68.3-69.6z m0 348.2H149.8V134.6h728.9v278.6zM878.7 542.5H149.8c-37.7 0-68.3 31.2-68.3 69.6v278.6c0 38.5 30.6 69.6 68.3 69.6h728.9c37.7 0 68.3-31.2 68.3-69.6V612.2c0-38.5-30.6-69.7-68.3-69.7z m0 348.2H149.8V612.2h728.9v278.5z" p-id="8310"></path><path d="M384.7 281m-32.5 0a32.5 32.5 0 1 0 65 0 32.5 32.5 0 1 0-65 0Z" p-id="8311"></path><path d="M512.2 281m-32.5 0a32.5 32.5 0 1 0 65 0 32.5 32.5 0 1 0-65 0Z" p-id="8312"></path><path d="M643.8 281m-32.5 0a32.5 32.5 0 1 0 65 0 32.5 32.5 0 1 0-65 0Z" p-id="8313"></path><path d="M383.7 748.5m-32.5 0a32.5 32.5 0 1 0 65 0 32.5 32.5 0 1 0-65 0Z" p-id="8314"></path><path d="M511.2 748.5m-32.5 0a32.5 32.5 0 1 0 65 0 32.5 32.5 0 1 0-65 0Z" p-id="8315"></path><path d="M642.8 748.5m-32.5 0a32.5 32.5 0 1 0 65 0 32.5 32.5 0 1 0-65 0Z" p-id="8316"></path></svg>