<?xml version="1.0" standalone="no"?><!DOCTYPE svg PUBLIC "-//W3C//DTD SVG 1.1//EN" "http://www.w3.org/Graphics/SVG/1.1/DTD/svg11.dtd"><svg t="1708487196670" class="icon" viewBox="0 0 1024 1024" version="1.1" xmlns="http://www.w3.org/2000/svg" p-id="3273" xmlns:xlink="http://www.w3.org/1999/xlink" width="200" height="200"><path d="M763.716 779.61c0 3.53-0.14 6.73 0.02 9.92 1.22 23.19 18.79 40.67 41.16 41.02 23.07 0.37 41.44-16.62 42.97-40.11 0.46-6.99 0.57-14.11-0.16-21.07-1.88-17.83-11.41-30.44-28.29-36.43-16.24-5.75-31.01-1.84-43.27 10.07-10.34 10.04-13.37 22.92-12.43 36.6z m84.07-590.39c0-4.15 0.38-8.34-0.06-12.45-3.17-29.72-34.06-47.29-60.26-34.09-16.87 8.5-23.49 23-23.99 41.53-0.56 20.76 3.12 39.08 23.41 49.52 4.69 2.41 10.24 3.9 15.5 4.3 27.63 2.07 45.66-17.4 45.4-48.81zM313.026 466.04c-0.36-5.43-0.59-10.87-1.09-16.28-2.61-28.07-24.78-51.35-51.38-54.04-31.36-3.16-58.57 13.03-65.73 42.11-3.59 14.54-3.48 30.51-2.32 45.62 3.13 40.87 49.26 65.77 85.96 47.11 26.41-13.43 35.41-36.32 34.56-64.52z m494.15 500.9c35.39-0.81 68.15-11.71 96.62-34.53 2.44-1.96 4.88-5.34 5.2-8.29 2.44-23.06-11.79-45.71-33.77-53.61-8.99-3.23-18.33-5.6-27.67-7.65-3.74-0.82-8.24-0.66-11.8 0.66-17.39 6.46-35.18 8.32-52.55 1.97-10.35-3.78-19.61-3.55-29.49-0.27-3.03 1-6.17 1.65-9.25 2.51-26.67 7.54-40.4 25-42.13 52.68-0.36 5.83 1.53 9.27 6.03 12.74 28.86 22.33 61.55 33.23 98.81 33.79z m-1.97-592.19c36.64-0.46 69.42-11.33 97.96-34.08 2.68-2.14 5.48-5.77 5.8-8.96 2.35-23.2-11.82-45.49-33.91-53.52-8.38-3.04-17.06-5.5-25.81-7.22-4.65-0.92-10.11-0.78-14.54 0.76-16.86 5.88-34.16 7.9-50.77 1.72-11.42-4.24-21.51-3.41-32.26 0.07-2.43 0.79-4.94 1.3-7.4 2-26.65 7.6-40.64 25-41.54 52.87-0.13 3.92 2.23 9.27 5.26 11.74 28.3 23.07 61.09 34 97.21 34.62zM252.296 709.33c52.16-1.25 97.61-18.83 135.41-54.98 2.39-2.29 4.26-6.5 4.21-9.77-0.53-30.98-19.79-57.74-49.08-67.79-12.36-4.24-25.12-7.44-37.88-10.36-4.3-0.98-9.59-0.74-13.64 0.88-26.24 10.54-52.23 10.62-78.44 0-3.6-1.46-8.15-2.32-11.84-1.52-11.54 2.49-22.98 5.6-34.3 9-32.31 9.71-52.57 34.74-54.49 67.73-0.22 3.86 1.31 9.11 3.98 11.67 37.99 36.43 83.74 54.1 136.07 55.14z m749.72 117.21c-1.77 9.04-3.09 18.18-5.37 27.09-18.53 72.65-63.56 121.89-135.04 143.11-72.71 21.58-139.38 5.26-193.19-48.34-57.23-57-72.07-126.35-47.44-203.49 2.61-8.18 1.97-11.96-6.08-16.18-52.43-27.51-104.55-55.62-156.78-83.52-2.8-1.49-5.64-2.89-7.09-3.64-15.68 16.74-29.46 34.26-46 48.6-53.3 46.19-115.91 64.88-185.57 54.79-105.4-15.27-182.91-92.56-199.41-197.84-7.82-49.84 0.98-97.58 24.12-142.51 5.92-11.49 16-15.41 26.19-10.7 9.92 4.59 13.94 15.4 8.4 26.98-12.03 25.1-20.2 51.08-21.95 79-2.34 37.35 5.41 72.44 23.38 107.08 17.2-41.26 48.1-64.38 91.05-73.12-21.3-32.32-22.51-67.03-15.04-101.84 10.3-48 55.84-79.02 106.32-74.93 45.76 3.7 85 43.72 87.93 90.86 2.1 33.78 2.3 52.51-15.34 83.07 17.6 9.03 36.12 16.78 52.7 27.52 17.19 11.13 27.79 28.73 36.19 48.83 21.27-41.02 29.13-82.8 21.02-126.88-15.8-85.99-77.9-147.03-164.02-160.97-38.24-6.19-75.3-0.55-110.69 15.4-3.79 1.71-7.45 3.73-11.31 5.26-11.39 4.52-21.64 1.08-26.16-8.59-4.6-9.82-0.98-20.19 9.71-25.84 21.94-11.61 45.14-19.85 69.72-23.49 88.54-13.13 162.13 14.4 220.75 81.98 2.93 3.38 5.45 7.11 8.13 10.71 2.48 3.32 4.92 6.67 7.8 10.57 3-1.42 5.85-2.61 8.57-4.06 52.52-28.03 104.96-56.22 157.61-84.01 7.11-3.75 9.26-6.9 6.25-15.17-15.44-42.42-15.51-85.24-1.13-128.04 5.91-17.57 14.72-23.92 27.15-19.79 11.88 3.95 14.86 14.77 9.1 32.48-13.61 41.95-10.47 82.65 9.29 122.06 0.82 1.64 1.87 3.17 3.68 6.21 13.12-30.58 35.18-49.35 67.05-57.5-12.76-22.45-13.01-46.13-9.86-70.24 4.11-31.45 31.4-60.02 62.94-65.9 34.09-6.36 69.24 8.65 84.89 37.32 17.54 32.15 15.76 65.01 2.32 96.81 12.63 7.2 26.85 12.9 37.94 22.29 11.17 9.46 19.23 22.59 29.58 35.24 3.98-9.98 9.46-20.99 12.82-32.61 27.01-93.39-35.85-187.65-132.58-199.76-22.38-2.8-44-0.59-65.38 6-4.58 1.41-9.14 3.02-13.82 3.96-11.39 2.29-20.5-2.89-23.42-12.94-2.74-9.43 1.76-19.68 12.17-23.08 14.84-4.84 30.2-8.09 45.34-12.03 2.4-0.62 4.78-1.29 7.17-1.94h36.54c1.5 0.51 2.96 1.26 4.49 1.48 87.05 12.14 149.07 68.05 169.52 153 1.93 8.04 3.23 16.24 4.83 24.36v34.61c-0.63 2.44-1.52 4.85-1.84 7.33-5.53 41.91-22.84 78.1-51.29 109.44-64.59 71.16-180.37 83.14-257.01 25.03-18.39-13.94-34-31.56-51.97-48.5-56.01 29.96-114.24 61.11-172.88 92.48 13.22 30.5 19.34 61.48 19.35 93.48 0 31.97-6.51 62.86-19.21 92.92 58.83 31.44 117.1 62.58 175.4 93.74 1.71-2.17 2.71-3.4 3.67-4.67 46.69-61.44 108.37-88.89 185.18-80.26 15.08 1.69 29.95 6.52 44.5 11.22 11.44 3.69 15.96 14.13 12.51 24.44-3.19 9.52-12.97 14.32-24.28 11.7-4.04-0.93-7.98-2.33-11.96-3.55-21.37-6.59-43.01-8.68-65.38-5.91-82.21 10.2-142.59 81.35-138.34 164.04 1.26 24.47 7.43 47.69 21.02 70.54 13.02-31.24 35.65-49.66 66.77-57.91-1.59-3.42-2.9-5.66-3.71-8.07-12.45-36.65-12.9-72.3 14.08-102.91 21.19-24.04 49.02-32.17 80.19-23.45 32.58 9.12 52.39 31.14 58.05 64.56 4.05 23.92 2.88 47.66-9.73 70.16 32.18 7.88 53.83 27.11 67.13 57.35 1.82-3.11 2.86-4.67 3.69-6.33 19.18-38.43 22.73-78.17 10.03-119.3-1.78-5.78-3.97-11.64-4.45-17.58-0.73-8.96 4-15.37 12.48-18.37 8.54-3.01 15.89-0.55 21.22 6.65 2.23 3.02 3.99 6.66 4.95 10.29 4.15 15.67 7.92 31.44 11.83 47.18v36.54z" fill="#2592FF" p-id="3274"></path><path d="M108.27 365.87c-0.26 8.98-8.45 16.89-17.32 16.73-9.37-0.17-17.19-8.56-16.79-18.02 0.38-9.25 8.23-16.44 17.58-16.1 9.06 0.33 16.79 8.46 16.53 17.39M671.76 75.41c9.04 0.21 17.01 8.46 16.78 17.38-0.23 9.02-8.52 16.98-17.45 16.75-9.1-0.24-16.85-8.34-16.68-17.44 0.18-9.11 8.28-16.9 17.35-16.69M921.74 667.05c9.02-0.07 16.95 7.67 17.11 16.71 0.17 9.3-8.13 17.63-17.36 17.42-8.9-0.2-16.85-8.35-16.77-17.22 0.08-8.91 8.06-16.84 17.02-16.91" fill="#2592FF" p-id="3275"></path></svg>